<?xml version="1.0" encoding="UTF-8" standalone="no"?>
<!-- Created with Inkscape (http://www.inkscape.org/) -->

<svg
   width="500mm"
   height="500mm"
   viewBox="0 0 500 500"
   version="1.1"
   id="svg1505"
   inkscape:version="1.2.2 (b0a8486541, 2022-12-01)"
   sodipodi:docname="loader.svg"
   xmlns:inkscape="http://www.inkscape.org/namespaces/inkscape"
   xmlns:sodipodi="http://sodipodi.sourceforge.net/DTD/sodipodi-0.dtd"
   xmlns="http://www.w3.org/2000/svg"
   xmlns:svg="http://www.w3.org/2000/svg">
  <sodipodi:namedview
     id="namedview1507"
     pagecolor="#505050"
     bordercolor="#ffffff"
     borderopacity="1"
     inkscape:showpageshadow="0"
     inkscape:pageopacity="0"
     inkscape:pagecheckerboard="1"
     inkscape:deskcolor="#505050"
     inkscape:document-units="mm"
     showgrid="false"
     inkscape:zoom="1.3986392"
     inkscape:cx="834.02498"
     inkscape:cy="1075.6885"
     inkscape:window-width="1920"
     inkscape:window-height="1043"
     inkscape:window-x="0"
     inkscape:window-y="0"
     inkscape:window-maximized="1"
     inkscape:current-layer="layer1" />
  <defs
     id="defs1502" />
  <g
     inkscape:label="Calque 1"
     inkscape:groupmode="layer"
     id="layer1">
    <g
       id="chef"
       inkscape:label="chef">
      <path
         id="toque-haut"
         style="fill:#000000;stroke:#ffffff;stroke-width:0;stroke-linecap:round;stroke-linejoin:round"
         d="m 268.72818,257.86238 c 0,0 14.5371,3.97507 20.6577,-5.87997 6.1206,-9.85506 1.58202,-22.00768 -5.20989,-27.48474 -13.3824,-10.79168 -22.18629,-12.34202 -34.30487,-12.29458 -12.11858,0.0474 -20.66471,1.7122 -34.04711,12.50388 -6.79191,5.47705 -11.3305,17.62967 -5.20989,27.48473 6.12061,9.85504 20.6577,5.87997 20.6577,5.87997 16.02176,3.38884 23.43658,2.91096 37.45636,-0.20929 z"
         sodipodi:nodetypes="csszsscc"
         inkscape:label="toque-haut" />
      <path
         id="toque-bas"
         style="fill:#000000;stroke:#ffffff;stroke-width:0;stroke-linecap:round;stroke-linejoin:round"
         d="m 266.48574,254.63422 c -9.41001,-0.35511 -23.10598,-0.26802 -33.86808,0.39481 -4.46799,27.3187 -7.73877,22.61481 17.28753,18.2172 24.70638,4.00049 22.77749,8.25085 16.58055,-18.61201 z"
         sodipodi:nodetypes="cccc"
         inkscape:label="toque-bas" />
      <path
         id="toque-haut-shadow"
         style="fill:#000000;stroke:#ffffff;stroke-width:0;stroke-linecap:round;stroke-linejoin:round"
         d="m 269.60664,258.87339 c 0,0 15.21898,4.16153 21.62667,-6.15577 6.4077,-10.31733 1.65623,-23.03998 -5.45426,-28.77394 -14.01012,-11.29788 -23.22696,-12.92094 -35.91398,-12.87127 -12.68701,0.0496 -21.634,1.79251 -35.64412,13.09038 -7.11049,5.73396 -11.86197,18.45661 -5.45426,28.77393 6.4077,10.3173 21.62667,6.15578 21.62667,6.15578 16.77327,3.54779 24.53589,3.0475 39.21328,-0.21911 z"
         sodipodi:nodetypes="csszsscc"
         inkscape:label="toque-haut-shadow" />
      <path
         style="fill:#000000;stroke:#ffffff;stroke-width:0;stroke-linecap:round;stroke-linejoin:round"
         d="m 248.21912,291.50366 -0.90041,2.05319 c 0,0 -7.11649,0.60336 -8.01912,4.25598 -0.90263,3.65266 -11.83286,0.56939 -8.35941,-5.70174 3.47345,-6.27113 6.90884,-5.73207 6.90884,-5.73207 0,0 -8.13661,8.78504 -4.1252,9.00414 4.01141,0.21911 6.43997,-4.24677 8.62839,-4.14848 2.1884,0.0983 5.86691,0.26898 5.86691,0.26898 z"
         id="moustache-l"
         inkscape:label="moustache-l" />
      <path
         style="fill:#000000;stroke:#ffffff;stroke-width:0;stroke-linecap:round;stroke-linejoin:round"
         d="m 251.64165,291.50366 0.90041,2.05319 c 0,0 7.11649,0.60336 8.01912,4.25598 0.90263,3.65266 11.83286,0.56939 8.35941,-5.70174 -3.47345,-6.27113 -6.90884,-5.73207 -6.90884,-5.73207 0,0 8.13661,8.78504 4.1252,9.00414 -4.01141,0.21911 -6.43997,-4.24677 -8.62839,-4.14848 -2.1884,0.0983 -5.86691,0.26898 -5.86691,0.26898 z"
         id="moustache-r"
         inkscape:label="moustache-r" />
      <path
         style="fill:#000000;stroke:#ffffff;stroke-width:0;stroke-linecap:round;stroke-linejoin:round"
         d="m 248.41967,302.53699 3.32034,-0.0854 -0.59448,5.66077 -1.9545,-0.0404 z"
         id="beard"
         sodipodi:nodetypes="ccccc"
         inkscape:label="beard" />
    </g>
    <g
       id="pepper"
       inkscape:label="pepper"
       transform="translate(3.7913961,-7.7008804)"
       style="display:inline">
      <path
         style="fill:#008000;stroke:#ffffff;stroke-width:0;stroke-linecap:round;stroke-linejoin:round"
         d="m 209.83207,329.36166 c 1.28636,0.36056 1.85926,0.70542 2.87871,1.47369 -0.14373,2.90023 -2.92031,0.11564 -4.03063,4.7448 0.12061,0.33416 5.59918,3.38281 5.59918,3.38281 l -1.32364,1.19015 c 0,0 -7.45057,-3.08424 -6.95787,-4.41163 1.58918,-4.28141 1.74773,-5.50936 3.83425,-6.37982 z"
         id="pepper-tail"
         inkscape:label="pepper-tail"
         sodipodi:nodetypes="cccccsc" />
      <path
         style="fill:#aa0000;stroke:#ffffff;stroke-width:0;stroke-linecap:round;stroke-linejoin:round"
         d="m 227.47645,330.01314 c 2.76589,-1.62521 9.96876,0.79732 7.94373,3.7051 2.63259,-1.85351 5.73639,5.84404 2.51609,8.2622 3.12272,1.68235 2.94268,8.49821 -1.22529,7.25128 2.50284,3.76255 -8.91386,8.13848 -10.12937,4.07544 -1.45426,3.98533 -11.76191,0.0956 -9.73899,-4.39271 -3.11311,2.61654 -9.64572,-5.92121 -7.26599,-8.1021 -1.95752,-4.81946 5.76153,-10.96728 8.7693,-9.8912 2.62346,-2.11674 8.38437,-2.95934 9.13052,-0.90801 z"
         id="pepper-outside"
         sodipodi:nodetypes="ccccccccc"
         inkscape:label="pepper-outside" />
      <path
         style="fill:#800000;stroke:#ffffff;stroke-width:0;stroke-linecap:round;stroke-linejoin:round"
         d="m 227.70843,334.10263 c 2.6595,-2.44472 6.94182,0.25597 3.81334,4.22895 4.172,-3.71972 6.52038,2.76981 3.98955,4.67023 2.45414,1.32216 1.44881,7.71087 -3.96273,3.15734 5.49696,4.99353 -2.45418,7.57384 -3.40945,4.38071 -1.14289,3.13206 -7.78603,0.66242 -2.99877,-4.0337 -4.58289,3.57968 -6.44953,-1.65123 -4.57931,-3.36518 -2.12111,-0.74019 1.31808,-10.76135 4.86473,-4.17972 -4.50407,-5.02672 0.16331,-7.06002 2.28264,-4.85863 z"
         id="pepper-inside"
         sodipodi:nodetypes="ccccccccc"
         inkscape:label="pepper-inside" />
    </g>
    <g
       id="knife"
       inkscape:label="knife"
       transform="translate(-55.185675,-4.6438169)"
       style="display:none">
      <path
         style="display:inline;fill:#808080;stroke:#ffffff;stroke-width:0;stroke-linecap:round;stroke-linejoin:round"
         d="m 263.75007,351.65519 c 0,0 4.45532,-27.92359 7.23914,-28.3407 3.79952,-0.20096 18.46275,1.80896 18.46275,1.80896 0,0 63.77354,-9.42552 64.83424,-8.84523 1.40177,0.76689 0.13043,1.35137 0.13043,1.35137 l -63.77938,10.61778 -17.67458,-3.21956 z"
         id="knife-ext"
         inkscape:label="knife-ext"
         sodipodi:nodetypes="cccscccc" />
      <path
         id="knife-int"
         style="display:inline;fill:#b3b3b3;stroke:#ffffff;stroke-width:0;stroke-linecap:round;stroke-linejoin:round"
         inkscape:label="knife-int"
         d="m 272.66776,325.10092 c -2.20697,1.22019 -9.30036,25.94136 -8.83373,26.54738 6.52241,2.76255 55.49155,-4.82254 55.49155,-4.82254 0,0 0.88876,-12.62306 2.74221,-18.30124 1.41514,-4.33537 31.73242,-5.31882 31.73242,-5.31882 l 0.62782,-5.72861 c 0,0 -58.22489,8.77751 -62.76525,9.4124 -6.932,-0.63623 -17.39613,-2.67257 -18.99502,-1.78857 z m 2.2736,0.58876 c 0.29154,0.003 0.57157,0.0657 0.82682,0.18655 1.18103,0.55918 1.57617,2.19945 0.88263,3.66386 l -2.13888,-1.01234 2.13785,1.01441 c -0.69444,1.46399 -2.2144,2.1969 -3.39514,1.63711 -1.18059,-0.55986 -1.57503,-2.2003 -0.88108,-3.66438 0.52452,-1.10665 1.5482,-1.83428 2.5678,-1.82521 z"
         sodipodi:nodetypes="sccscccsscccccss" />
    </g>
    <g
       id="slice-pepper"
       inkscape:label="slice-pepper"
       transform="translate(3.7913961,-7.7008804)"
       style="display:inline">
      <path
         style="display:inline;fill:#aa0000;stroke:#ffffff;stroke-width:0;stroke-linecap:round;stroke-linejoin:round"
         d="m 227.78773,330.47203 c 2.76589,-1.62521 9.65748,0.33843 7.63245,3.24621 2.63259,-1.85351 5.73639,5.84404 2.51609,8.2622 3.12272,1.68235 2.94268,8.49821 -1.22529,7.25128 2.50284,3.76255 -8.91386,8.13848 -10.12937,4.07544 -1.45426,3.98533 -7.1501,0.68177 -5.12718,-3.80654 -3.11311,2.61654 -6.76584,-3.94025 -4.38611,-6.12114 -1.95752,-4.81946 0.9103,-9.70977 3.91807,-8.63369 -2.31681,-2.14482 3.86419,-6.27835 6.80134,-4.27376 z"
         id="slice-pepper-outside"
         sodipodi:nodetypes="ccccccccc"
         inkscape:label="slice-pepper-outside" />
      <path
         style="display:inline;fill:#800000;stroke:#ffffff;stroke-width:0;stroke-linecap:round;stroke-linejoin:round"
         d="m 227.70843,334.10263 c 2.6595,-2.44472 6.94182,0.25597 3.81334,4.22895 4.172,-3.71972 6.52038,2.76981 3.98955,4.67023 2.45414,1.32216 1.44881,7.71087 -3.96273,3.15734 5.49696,4.99353 -2.45418,7.57384 -3.40945,4.38071 -1.14289,3.13206 -7.78603,0.66242 -2.99877,-4.0337 -4.58289,3.57968 -6.44953,-1.65123 -4.57931,-3.36518 -2.12111,-0.74019 1.31808,-10.76135 4.86473,-4.17972 -4.50407,-5.02672 0.16331,-7.06002 2.28264,-4.85863 z"
         id="slice-pepper-inside"
         sodipodi:nodetypes="ccccccccc"
         inkscape:label="slice-pepper-inside" />
    </g>
  </g>
</svg>
